# xmcd
#
# Track frame offsets:
#	150
#	8506
#	19552
#	27569
#	40659
#	52601
#	68888
#	79262
#	92217
#	107235
#
# Disc length: 1598 seconds
#
# Revision: 1
# Processed by: cddbd v1.5.2PL0 Copyright (c) Steve Scherf et al.
# Submitted via: audiograbber 1.83.01
#
DISCID=6e063c0a
DTITLE=Various Artist - Hit Country Train Tracks
DYEAR=2006
DGENRE=Country
TTITLE0=Johnny Cash - Wreck of the Old '97
TTITLE1=Hank Williams - I Heard That Lonesome Whistle
TTITLE2=Jerry Lee Lewis - Waiting for a Train
TTITLE3=Patsy Cline - Life's Railway to Heaven
TTITLE4=Roy Acuff - Wabash Cannonball
TTITLE5=Merle Haggard - Ramblin' Fever
TTITLE6=Roger Miller - Engine, Engine #9
TTITLE7=Hank Williams - Pan American
TTITLE8=The Carter Family - Engine 143
TTITLE9=Hank Snow - I'm Movin' On
EXTD=
EXTT0=
EXTT1=
EXTT2=
EXTT3=
EXTT4=
EXTT5=
EXTT6=
EXTT7=
EXTT8=
EXTT9=
PLAYORDER=
